# xmcd
#
# Track frame offsets:
#	150
#	14203
#	36128
#	53251
#	67753
#	79741
#	99454
#	113040
#	129577
#	149833
#	162784
#
# Disc length: 2480 seconds
#
# Revision: 2
# Processed by: cddbd v1.5.2PL0 Copyright (c) Steve Scherf et al.
# Submitted via: audiograbber 1.83.01
#
DISCID=8d09ae0b
DTITLE=Audrey Auld Mezera - Texas
DYEAR=2004
DGENRE=Country
TTITLE0=Love You Like The Earth
TTITLE1=Karla Faye
TTITLE2=My Father
TTITLE3=Song For Harlan
TTITLE4=Ball And Chain
TTITLE5=Hole In My Life
TTITLE6=Woody
TTITLE7=Missin Mez
TTITLE8=Billy Joe
TTITLE9=Shine
TTITLE10=One Eye
EXTD=
EXTT0=
EXTT1=
EXTT2=
EXTT3=
EXTT4=
EXTT5=
EXTT6=
EXTT7=
EXTT8=
EXTT9=
EXTT10=
PLAYORDER=
